<svg width="591" height="660" viewBox="0 0 591 660" fill="none" xmlns="http://www.w3.org/2000/svg">
<path d="M35.6638 619.21C59.5988 586.122 72.2475 547.864 90.5924 511.783C99.5791 494.115 109.751 476.783 122.453 461.504C136.428 444.686 152.951 430.08 169.598 415.97C186.262 401.842 202.944 387.467 220.068 373.923C235.742 361.531 254.069 352.909 269.831 340.551C301.302 315.855 311.333 279.562 319.541 242.242C323.38 224.733 327.643 207.684 339.089 193.415C349.951 179.871 364.316 170.028 379.458 161.866C412.026 144.304 448.097 134.62 481.09 117.979C517.09 99.8321 549.392 74.3916 571.434 40.294C579.59 27.6888 586.029 13.9506 591 0H0V660C13.0555 647.289 24.855 634.135 35.6638 619.21Z" fill="url(#paint0_linear_247_1296)"/>
<defs>
<linearGradient id="paint0_linear_247_1296" x1="596.857" y1="330.004" x2="-2.26261" y2="330.004" gradientUnits="userSpaceOnUse">
<stop stop-color="#6D38DD"/>
<stop offset="1" stop-color="#1FFFF2"/>
</linearGradient>
</defs>
</svg>
