<svg width="520" height="517" viewBox="0 0 520 517" fill="none" xmlns="http://www.w3.org/2000/svg">
<path d="M339.965 159.782C343.08 162.9 343.08 167.951 339.965 171.052C336.851 174.17 331.807 174.17 328.71 171.052C325.595 167.933 325.595 162.883 328.71 159.782C331.825 156.663 336.851 156.663 339.965 159.782ZM322.445 80.8388C311.738 91.5595 311.738 108.961 322.445 119.681C333.152 130.402 350.531 130.402 361.237 119.681C371.944 108.961 371.944 91.5595 361.237 80.8388C350.531 70.1182 333.169 70.1005 322.445 80.8388ZM520 0C509.647 17.1353 501.648 34.4655 472.518 42.4041C433.46 53.0361 394.013 34.4123 355.026 36.6982C228.012 44.1761 332.55 171.052 280.148 231.707C237.746 280.81 168.107 252.245 138.428 317.809C120.076 358.335 118.36 402.103 94.5036 441.442C72.6651 477.449 43.0398 511.011 0 517V471.424C0.619406 471.459 1.25651 471.477 1.85822 471.477C15.7683 471.53 28.121 463.609 38.2616 454.785C54.4369 440.715 68.3824 423.722 80.5935 406.143C86.7522 397.283 92.3976 388.53 95.5301 378.11C96.9458 373.397 102.662 349.014 100.202 342.245C97.7599 335.547 90.6102 331.258 83.6021 332.906C69.3203 336.256 71.3378 354.95 66.7896 365.529C59.4983 382.505 44.2079 395.246 27.1123 401.554C17.9451 404.938 8.56549 407.49 0.0176876 411.672V0H431.92C415.727 5.28057 398.773 9.0195 381.943 10.2953C377.607 10.6143 377.43 16.6568 380.881 17.7378C385.164 20.8033 390.013 20.9628 395.075 22.2032C398.614 23.0715 432.398 29.6634 444.486 30.3544C459.457 31.2227 477.562 28.9191 489.118 18.5529C493.295 14.7962 497.082 10.2245 496.87 4.28825C496.817 2.8352 496.533 1.39988 496.126 0H520ZM119.032 294.649C115.776 284.371 104.998 280.739 96.1318 286.622C92.3091 289.156 88.929 293.125 88.6812 297.838C88.4334 298.264 88.2211 298.724 88.0795 299.238C84.9117 309.764 96.1672 316.994 105.511 316.161C116.289 315.186 122.235 304.767 119.032 294.649Z" fill="url(#paint0_linear_247_1297)"/>
<defs>
<linearGradient id="paint0_linear_247_1297" x1="4.9802" y1="3.14513" x2="263.471" y2="261.304" gradientUnits="userSpaceOnUse">
<stop stop-color="#1FFFF2"/>
<stop offset="1" stop-color="#6D38DD"/>
</linearGradient>
</defs>
</svg>
