<svg width="1440" height="631" viewBox="0 0 1440 631" fill="none" xmlns="http://www.w3.org/2000/svg">
<path fill-rule="evenodd" clip-rule="evenodd" d="M0 639V121.52C5.20472 111.653 10.4094 101.237 15.6142 90.8219C40.7219 40.5777 65.8297 -9.66658 90.9375 1.59804C111.058 11.2701 131.179 60.1004 151.3 108.931C168.95 151.764 186.6 194.598 204.25 211.001C225.444 230.697 246.637 211.903 267.831 193.108C284.408 178.408 300.985 163.707 317.562 167.426C334.829 171.299 352.096 195.409 369.362 219.518C389.867 248.148 410.371 276.779 430.875 271.522C452.135 266.753 473.395 225.935 494.656 185.117C511.166 153.418 527.677 121.72 544.187 106.905C571.113 81.8813 598.039 101.146 624.965 120.412C635.81 128.171 646.655 135.931 657.5 140.796C695.271 158.953 733.042 140.796 770.812 115.378C775.997 111.723 781.181 107.908 786.365 104.093C818.952 80.1157 851.538 56.1382 884.125 71.8025C903.01 80.2754 921.896 102.063 940.781 123.851C959.667 145.638 978.552 167.426 997.437 175.899C1020.2 186.842 1042.97 178.437 1065.74 170.032C1080.74 164.492 1095.75 158.953 1110.75 158.953C1129.64 158.953 1148.52 167.728 1167.41 176.504C1186.29 185.279 1205.18 194.055 1224.06 194.055C1254.49 194.055 1284.92 171.276 1315.34 148.498C1322.69 143 1330.03 137.501 1337.37 132.324C1371.58 109.302 1405.79 92.2379 1440 82.9292V639H1337.37H1224.06H1110.75H997.437H884.125H770.812H657.5H544.187H430.875H317.562H204.25H90.9375H0Z" fill="url(#paint0_linear_38_1363)"/>
<defs>
<linearGradient id="paint0_linear_38_1363" x1="658.062" y1="97.5" x2="658.062" y2="615" gradientUnits="userSpaceOnUse">
<stop offset="0.0621578" stop-color="#038DE9"/>
<stop offset="1" stop-color="#1FFFF2"/>
</linearGradient>
</defs>
</svg>
