<svg width="1440" height="495" viewBox="0 0 1440 495" fill="none" xmlns="http://www.w3.org/2000/svg">
<path fill-rule="evenodd" clip-rule="evenodd" d="M1207 29C1207 45.0163 1194.02 58 1178 58C1161.98 58 1149 45.0163 1149 29C1149 12.9837 1161.98 0 1178 0C1194.02 0 1207 12.9837 1207 29ZM0 105.913L16 83.9133C32 61.9133 64 18.9133 96 54.9133C113.678 74.8014 131.357 118.8 149.035 162.799L149.035 162.799C163.357 198.444 177.678 234.088 192 256.913C224 306.913 256 292.913 288 256.913C301.804 241.384 315.608 221.761 329.412 202.137C347.608 176.27 365.804 150.403 384 133.913C416 105.913 448 105.913 480 126.913C490.5 134.132 501 143.612 511.5 153.091C533 172.502 554.5 191.913 576 191.913C603.52 191.913 631.04 160.11 658.56 128.308L658.561 128.307C663.041 123.13 667.52 117.953 672 112.913C704 76.9133 736 47.9133 768 69.9133C796.138 88.3788 824.276 146.277 852.414 204.175C856.276 212.122 860.138 220.068 864 227.913C896 292.913 928 325.652 960 304.652C963.892 301.976 967.784 299.367 971.675 296.758C999.784 277.914 1027.89 259.071 1056 215.152C1076.47 183.161 1104.32 175.323 1130.1 168.064C1144.61 163.978 1158.47 160.076 1170 152.152C1184.38 142.266 1198.45 116.896 1212.86 90.9268C1230.52 59.1006 1248.68 26.3752 1268.5 20.1517C1289.52 13.5524 1300.83 36.4011 1312.96 60.9372C1321.61 78.4201 1330.69 96.7597 1344 105.913C1376 126.913 1408 119.913 1424 112.913L1440 105.913V702.85H1424H1344H1248H1152H1056H960H864H768H672H576H480H384H288H192H96H16H0V105.913ZM1047 162C1079.58 162 1106 135.585 1106 103C1106 70.4152 1079.58 44 1047 44C1014.42 44 988 70.4152 988 103C988 135.585 1014.42 162 1047 162Z" fill="url(#paint0_linear_28_1566)"/>
<defs>
<linearGradient id="paint0_linear_28_1566" x1="571.5" y1="-138.882" x2="579.46" y2="470.899" gradientUnits="userSpaceOnUse">
<stop offset="0.202057" stop-color="#6D38DD"/>
<stop offset="1" stop-color="#038DE9"/>
</linearGradient>
</defs>
</svg>
