<svg width="1440" height="340" viewBox="0 0 1440 340" fill="none" xmlns="http://www.w3.org/2000/svg">
<path fill-rule="evenodd" clip-rule="evenodd" d="M0 743.69V174.704C1.13788 174.078 2.32447 173.735 3.56144 173.689C22.5264 172.987 45.5617 142.929 72.3208 108.012C121.754 43.5069 183.896 -37.5803 256.561 19.1894C302.904 55.3942 335.075 106.759 364.644 153.969C406.538 220.858 443.21 279.407 507.561 274.689C559.782 270.861 611.879 231.184 667.387 188.91C728.56 142.321 793.876 92.578 868.061 84.1895C943.79 75.6265 1031.69 148.121 1113.14 215.295C1183.88 273.637 1249.76 327.964 1298.56 321.689C1365.7 313.057 1388.07 276.215 1406.06 246.584C1416.21 229.875 1424.96 215.459 1439.56 209.689C1439.71 209.632 1439.85 209.581 1440 209.538V743.69H709.561H0ZM654.062 115.69C654.062 163.186 615.558 201.69 568.062 201.69C520.565 201.69 482.062 163.186 482.062 115.69C482.062 68.193 520.565 29.6895 568.062 29.6895C615.558 29.6895 654.062 68.193 654.062 115.69ZM1333.06 152.19C1333.06 189.469 1302.84 219.69 1265.56 219.69C1228.28 219.69 1198.06 189.469 1198.06 152.19C1198.06 114.91 1228.28 84.6895 1265.56 84.6895C1302.84 84.6895 1333.06 114.91 1333.06 152.19ZM410.062 106.69C428.287 106.69 443.062 91.9149 443.062 73.6895C443.062 55.4641 428.287 40.6895 410.062 40.6895C391.836 40.6895 377.062 55.4641 377.062 73.6895C377.062 91.9149 391.836 106.69 410.062 106.69Z" fill="url(#paint0_linear_38_1370)"/>
<defs>
<linearGradient id="paint0_linear_38_1370" x1="747.061" y1="-45.8105" x2="718.56" y2="364.19" gradientUnits="userSpaceOnUse">
<stop offset="0.147963" stop-color="#6D38DD"/>
<stop offset="1" stop-color="#15D5FF"/>
</linearGradient>
</defs>
</svg>
