<svg width="503" height="597" viewBox="0 0 503 597" fill="none" xmlns="http://www.w3.org/2000/svg">
<path fill-rule="evenodd" clip-rule="evenodd" d="M0.56398 448.76C12.5277 525.58 93.9313 548.062 167.179 568.292C180.109 571.863 192.785 575.364 204.78 579.081C284.725 603.855 633.098 613.684 721.682 527.478C796.992 454.19 788.332 396.784 775.415 311.166L775.415 311.164C773.138 296.073 770.729 280.106 768.625 263.021C760.242 194.968 710.764 90.8162 645.177 36.2347C600.876 -0.632325 549.225 -14.884 497.924 19.8794C424.028 69.9539 394.723 116.186 369.852 155.424C351.894 183.755 336.247 208.44 307.795 228.292C288.657 241.646 254.756 257.815 216.258 276.176L216.258 276.176C118.254 322.919 -9.54189 383.87 0.56398 448.76ZM218.997 186.5C218.997 225.988 186.985 258 147.497 258C108.008 258 75.9966 225.988 75.9966 186.5C75.9966 147.012 108.008 115 147.497 115C186.985 115 218.997 147.012 218.997 186.5ZM46.9966 316C66.3265 316 81.9966 300.33 81.9966 281C81.9966 261.67 66.3265 246 46.9966 246C27.6666 246 11.9966 261.67 11.9966 281C11.9966 300.33 27.6666 316 46.9966 316Z" fill="url(#paint0_linear_260_1304)"/>
<defs>
<linearGradient id="paint0_linear_260_1304" x1="443.631" y1="30.0863" x2="272.892" y2="610.299" gradientUnits="userSpaceOnUse">
<stop stop-color="#FCEE21"/>
<stop offset="1" stop-color="#1FFFF2"/>
</linearGradient>
</defs>
</svg>
