<svg width="62" height="80" viewBox="0 0 62 80" fill="none" xmlns="http://www.w3.org/2000/svg">
<path d="M25.5321 51.927V16.3635C25.5321 15.3991 25.1479 14.4742 24.464 13.7923C23.7801 13.1103 22.8525 12.7272 21.8853 12.7272C20.9181 12.7272 19.9905 13.1103 19.3066 13.7923C18.6227 14.4742 18.2385 15.3991 18.2385 16.3635V51.927C17.1362 52.5616 16.2196 53.4728 15.5798 54.57C14.9401 55.6672 14.5994 56.9123 14.5917 58.1815C14.5917 60.1103 15.3601 61.9602 16.728 63.3241C18.0958 64.688 19.9509 65.4542 21.8853 65.4542C23.8197 65.4542 25.6748 64.688 27.0426 63.3241C28.4105 61.9602 29.1789 60.1103 29.1789 58.1815C29.1712 56.9123 28.8305 55.6672 28.1908 54.57C27.551 53.4728 26.6344 52.5616 25.5321 51.927ZM58.3532 5.45452H56.5298V3.63634C56.5298 2.67193 56.1456 1.74701 55.4617 1.06506C54.7778 0.383114 53.8502 0 52.883 0C51.9158 0 50.9883 0.383114 50.3044 1.06506C49.6204 1.74701 49.2362 2.67193 49.2362 3.63634V5.45452H47.4128C46.4456 5.45452 45.5181 5.83763 44.8342 6.51958C44.1503 7.20152 43.766 8.12644 43.766 9.09086C43.766 10.0553 44.1503 10.9802 44.8342 11.6621C45.5181 12.3441 46.4456 12.7272 47.4128 12.7272H49.2362V14.5454C49.2362 15.5098 49.6204 16.4347 50.3044 17.1167C50.9883 17.7986 51.9158 18.1817 52.883 18.1817C53.8502 18.1817 54.7778 17.7986 55.4617 17.1167C56.1456 16.4347 56.5298 15.5098 56.5298 14.5454V12.7272H58.3532C59.3204 12.7272 60.248 12.3441 60.9319 11.6621C61.6158 10.9802 62 10.0553 62 9.09086C62 8.12644 61.6158 7.20152 60.9319 6.51958C60.248 5.83763 59.3204 5.45452 58.3532 5.45452ZM38.2959 16.3635C38.2959 12.0237 36.5669 7.86153 33.4893 4.79277C30.4117 1.72401 26.2377 4.33486e-07 21.8853 4.33486e-07C17.5329 4.33486e-07 13.3589 1.72401 10.2813 4.79277C7.2037 7.86153 5.47474 12.0237 5.47474 16.3635V43.6361C2.95423 46.4841 1.22305 49.9389 0.452423 53.6587C-0.318201 57.3786 -0.101559 61.2346 1.08092 64.8453C2.2634 68.456 4.37074 71.6964 7.19449 74.2459C10.0182 76.7953 13.4606 78.5655 17.1809 79.3814C18.7145 79.7304 20.2771 79.9373 21.8488 79.9996C26.0845 80.0263 30.2369 78.8266 33.8021 76.546C37.3672 74.2654 40.1919 71.002 41.9334 67.1518C43.6748 63.3017 44.258 59.0303 43.6123 54.856C42.9666 50.6818 41.1198 46.7841 38.2959 43.6361V16.3635ZM31.0023 69.4905C29.0815 71.0477 26.7949 72.0919 24.3577 72.5247C21.9206 72.9576 19.413 72.7648 17.0712 71.9646C14.7293 71.1644 12.6303 69.7831 10.9716 67.9507C9.31286 66.1183 8.14911 63.8952 7.58988 61.4906C7.02647 59.0598 7.09953 56.5255 7.80204 54.131C8.50456 51.7366 9.8129 49.5626 11.6013 47.8179C11.9459 47.4811 12.2201 47.0795 12.4079 46.6363C12.5957 46.1932 12.6934 45.7172 12.6954 45.2361V16.3635C12.6954 13.9525 13.6559 11.6402 15.3657 9.93534C17.0755 8.23047 19.3944 7.27269 21.8124 7.27269C24.2303 7.27269 26.5493 8.23047 28.259 9.93534C29.9688 11.6402 30.9293 13.9525 30.9293 16.3635V45.2361C30.9313 45.7172 31.0291 46.1932 31.2169 46.6363C31.4047 47.0795 31.6788 47.4811 32.0234 47.8179C33.514 49.2538 34.6807 50.99 35.4456 52.9107C36.2106 54.8315 36.5562 56.8927 36.4596 58.9571C36.363 61.0216 35.8263 63.0417 34.8853 64.8831C33.9443 66.7245 32.6205 68.3447 31.0023 69.636V69.4905Z" fill="#F2F2F2"/>
</svg>
