<svg width="81" height="81" viewBox="0 0 81 81" fill="none" xmlns="http://www.w3.org/2000/svg">
<path d="M80.9999 36.4427C81.0112 33.583 80.2692 30.7711 78.849 28.2916C77.4289 25.8122 75.381 23.7533 72.9127 22.3235C72.9736 21.6215 72.9736 20.9156 72.9127 20.2137C72.9127 16.9856 71.6347 13.8896 69.3597 11.607C67.0847 9.32431 63.9992 8.04193 60.782 8.04193H60.0541C59.3808 6.16875 58.2596 4.48994 56.7891 3.15272C55.3186 1.81551 53.5435 0.860726 51.6196 0.37211C49.6956 -0.116506 47.6816 -0.124034 45.7541 0.350186C43.8266 0.824407 42.0445 1.76589 40.5641 3.09208C39.0836 1.76589 37.3015 0.824407 35.374 0.350186C33.4465 -0.124034 31.4325 -0.116506 29.5086 0.37211C27.5847 0.860726 25.8096 1.81551 24.339 3.15272C22.8685 4.48994 21.7474 6.16875 21.074 8.04193H20.3462C17.1289 8.04193 14.0434 9.32431 11.7684 11.607C9.49349 13.8896 8.21543 16.9856 8.21543 20.2137C8.15457 20.9156 8.15457 21.6215 8.21543 22.3235C5.92054 23.625 3.97748 25.4697 2.55539 27.6968C1.1333 29.924 0.27529 32.4661 0.0560425 35.102C-0.163205 37.7379 0.262957 40.3876 1.29743 42.8204C2.33191 45.2533 3.94335 47.3956 5.99146 49.0608C4.66627 51.5409 4.00653 54.3241 4.07701 57.1372C4.14749 59.9503 4.94577 62.6967 6.39349 65.1069C7.84121 67.517 9.88861 69.508 12.3348 70.8844C14.7809 72.2609 17.5417 72.9755 20.3462 72.9581H21.074C21.7474 74.8313 22.8685 76.5101 24.339 77.8473C25.8096 79.1845 27.5847 80.1393 29.5086 80.6279C31.4325 81.1165 33.4465 81.124 35.374 80.6498C37.3015 80.1756 39.0836 79.2341 40.5641 77.9079C42.0445 79.2341 43.8266 80.1756 45.7541 80.6498C47.6816 81.124 49.6956 81.1165 51.6196 80.6279C53.5435 80.1393 55.3186 79.1845 56.7891 77.8473C58.2596 76.5101 59.3808 74.8313 60.0541 72.9581H60.782C63.5693 72.9404 66.3048 72.2002 68.7231 70.8094C71.1414 69.4185 73.1605 67.4242 74.5844 65.0198C76.0083 62.6155 76.7888 59.8827 76.8502 57.0865C76.9115 54.2903 76.2516 51.5257 74.9345 49.0608C76.8206 47.5457 78.3444 45.6258 79.394 43.4423C80.4436 41.2587 80.9923 38.867 80.9999 36.4427ZM36.5205 26.5025C35.6398 25.997 34.7203 25.5629 33.7709 25.2041C32.7521 24.8598 31.6387 24.9357 30.6756 25.415C29.7125 25.8944 28.9787 26.738 28.6355 27.7602C28.2923 28.7825 28.3679 29.8996 28.8457 30.8659C29.3234 31.8323 30.1642 32.5686 31.183 32.9129C32.7395 33.4776 34.0859 34.5078 35.0404 35.8646C35.9949 37.2213 36.5115 38.8393 36.5205 40.5V46.7887C35.6398 46.2833 34.7203 45.8492 33.7709 45.4904C32.7521 45.1461 31.6387 45.2219 30.6756 45.7013C29.7125 46.1807 28.9787 47.0242 28.6355 48.0465C28.2923 49.0687 28.3679 50.1859 28.8457 51.1522C29.3234 52.1186 30.1642 52.8549 31.183 53.1992C32.7395 53.7638 34.0859 54.7941 35.0404 56.1509C35.9949 57.5076 36.5115 59.1256 36.5205 60.7863V68.9008C36.5205 69.9769 36.0945 71.0088 35.3362 71.7697C34.5778 72.5306 33.5493 72.9581 32.4769 72.9581C31.6946 72.9529 30.9306 72.7202 30.2775 72.2881C29.6243 71.8561 29.1102 71.2431 28.7973 70.5237C29.4753 70.1245 30.1239 69.6771 30.7382 69.1848C31.1471 68.8438 31.485 68.4254 31.7327 67.9533C31.9804 67.4813 32.133 66.9649 32.1818 66.4337C32.2306 65.9025 32.1747 65.3668 32.0172 64.8573C31.8597 64.3477 31.6037 63.8743 31.2638 63.4641C30.924 63.0538 30.5069 62.7147 30.0365 62.4662C29.566 62.2177 29.0514 62.0645 28.522 62.0155C27.9926 61.9666 27.4587 62.0227 26.9509 62.1807C26.4431 62.3388 25.9713 62.5956 25.5624 62.9366C24.1024 64.1699 22.2547 64.8454 20.3462 64.8435C18.2013 64.8435 16.1443 63.9886 14.6277 62.4669C13.111 60.9451 12.259 58.8811 12.259 56.729C12.2784 55.2018 12.7269 53.7111 13.553 52.4283C14.4604 52.5917 15.3806 52.6731 16.3026 52.6718C17.375 52.6718 18.4035 52.2443 19.1618 51.4834C19.9202 50.7225 20.3462 49.6906 20.3462 48.6145C20.3462 47.5385 19.9202 46.5065 19.1618 45.7456C18.4035 44.9847 17.375 44.5573 16.3026 44.5573C15.3474 44.5628 14.4002 44.3837 13.5125 44.0298C12.0582 43.5035 10.7847 42.57 9.84294 41.3399C8.90113 40.1097 8.33047 38.6345 8.19856 37.0889C8.06665 35.5434 8.37902 33.9922 9.09867 32.6193C9.81831 31.2464 10.9151 30.1093 12.259 29.3425C12.8336 29.873 13.4563 30.3484 14.1191 30.7626C15.0521 31.3006 16.1599 31.4447 17.1988 31.1632C18.2377 30.8817 19.1226 30.1976 19.6588 29.2614C20.195 28.3252 20.3386 27.2137 20.058 26.1713C19.7774 25.1289 19.0956 24.241 18.1626 23.703C17.5934 23.3879 17.1187 22.9256 16.7878 22.3641C16.414 21.7126 16.2449 20.9632 16.3026 20.2137C16.3026 19.1377 16.7286 18.1057 17.4869 17.3448C18.2452 16.5839 19.2737 16.1565 20.3462 16.1565C20.6279 16.117 20.9136 16.117 21.1953 16.1565C21.4094 16.8083 21.666 17.4454 21.9636 18.0634C22.2278 18.5283 22.581 18.9362 23.0029 19.2635C23.4249 19.5909 23.9072 19.8312 24.4221 19.9708C24.937 20.1103 25.4743 20.1462 26.0031 20.0765C26.532 20.0068 27.0418 19.8328 27.5033 19.5645C28.3998 19.0233 29.0523 18.1545 29.3238 17.1407C29.5952 16.1269 29.4645 15.0469 28.959 14.1278C28.6197 13.5055 28.4391 12.8086 28.4333 12.0992C28.4333 11.0231 28.8594 9.99116 29.6177 9.23028C30.376 8.46939 31.4045 8.04193 32.4769 8.04193C33.5493 8.04193 34.5778 8.46939 35.3362 9.23028C36.0945 9.99116 36.5205 11.0231 36.5205 12.0992V26.5025ZM67.6156 44.0298C66.728 44.3837 65.7807 44.5628 64.8256 44.5573C63.7531 44.5573 62.7246 44.9847 61.9663 45.7456C61.208 46.5065 60.782 47.5385 60.782 48.6145C60.782 49.6906 61.208 50.7225 61.9663 51.4834C62.7246 52.2443 63.7531 52.6718 64.8256 52.6718C65.7475 52.6731 66.6677 52.5917 67.5752 52.4283C68.4013 53.7111 68.8498 55.2018 68.8691 56.729C68.8691 58.8811 68.0171 60.9451 66.5005 62.4669C64.9838 63.9886 62.9268 64.8435 60.782 64.8435C58.8735 64.8454 57.0258 64.1699 55.5658 62.9366C54.74 62.248 53.6754 61.9166 52.6062 62.0155C51.5369 62.1145 50.5507 62.6355 49.8643 63.4641C49.178 64.2926 48.8478 65.3608 48.9463 66.4337C49.0449 67.5065 49.5642 68.4961 50.39 69.1848C51.0042 69.6771 51.6529 70.1245 52.3309 70.5237C52.018 71.2431 51.5038 71.8561 50.8507 72.2881C50.1976 72.7202 49.4335 72.9529 48.6512 72.9581C47.5788 72.9581 46.5503 72.5306 45.792 71.7697C45.0337 71.0088 44.6077 69.9769 44.6077 68.9008V60.7863C44.6166 59.1256 45.1333 57.5076 46.0877 56.1509C47.0422 54.7941 48.3886 53.7638 49.9452 53.1992C50.964 52.8549 51.8047 52.1186 52.2825 51.1522C52.7602 50.1859 52.8358 49.0687 52.4926 48.0465C52.1495 47.0242 51.4156 46.1807 50.4526 45.7013C49.4895 45.2219 48.3761 45.1461 47.3573 45.4904C46.4078 45.8492 45.4883 46.2833 44.6077 46.7887V40.5C44.6166 38.8393 45.1333 37.2213 46.0877 35.8646C47.0422 34.5078 48.3886 33.4776 49.9452 32.9129C50.964 32.5686 51.8047 31.8323 52.2825 30.8659C52.7602 29.8996 52.8358 28.7825 52.4926 27.7602C52.1495 26.738 51.4156 25.8944 50.4526 25.415C49.4895 24.9357 48.3761 24.8598 47.3573 25.2041C46.4078 25.5629 45.4883 25.997 44.6077 26.5025V12.0992C44.6077 11.0231 45.0337 9.99116 45.792 9.23028C46.5503 8.46939 47.5788 8.04193 48.6512 8.04193C49.7237 8.04193 50.7522 8.46939 51.5105 9.23028C52.2688 9.99116 52.6948 11.0231 52.6948 12.0992C52.689 12.8086 52.5084 13.5055 52.1692 14.1278C51.9001 14.5885 51.7243 15.0979 51.6519 15.6268C51.5795 16.1558 51.6118 16.6939 51.747 17.2102C51.8823 17.7266 52.1178 18.2112 52.44 18.636C52.7622 19.0609 53.1649 19.4178 53.6248 19.6863C54.0863 19.9545 54.5962 20.1285 55.125 20.1982C55.6538 20.268 56.1912 20.232 56.7061 20.0925C57.221 19.953 57.7033 19.7126 58.1252 19.3852C58.5472 19.0579 58.9004 18.65 59.1645 18.1851C59.4672 17.5276 59.7239 16.8497 59.9328 16.1565C60.2145 16.117 60.5003 16.117 60.782 16.1565C61.8544 16.1565 62.8829 16.5839 63.6412 17.3448C64.3995 18.1057 64.8256 19.1377 64.8256 20.2137C64.8194 21.0091 64.5803 21.7851 64.1381 22.4452C63.8074 22.9717 63.3481 23.4046 62.8038 23.703C61.8708 24.241 61.189 25.1289 60.9084 26.1713C60.6278 27.2137 60.7714 28.3252 61.3076 29.2614C61.8438 30.1976 62.7287 30.8817 63.7676 31.1632C64.8065 31.4447 65.9143 31.3006 66.8473 30.7626C67.5733 30.3686 68.2517 29.8922 68.8691 29.3425C70.2177 30.0957 71.3232 31.2203 72.0553 32.5836C72.7874 33.9469 73.1154 35.4919 73.0006 37.0362C72.8858 38.5805 72.333 40.0596 71.4075 41.2988C70.482 42.5381 69.2223 43.4857 67.7774 44.0298H67.6156Z" fill="#F2F2F2"/>
</svg>
