<svg width="87" height="87" viewBox="0 0 87 87" fill="none" xmlns="http://www.w3.org/2000/svg">
<path d="M43.4531 0C36.1635 0.00745368 28.9921 1.84212 22.5951 5.33613C16.1982 8.83014 10.78 13.8719 6.8363 20.0001C1.28957 28.6954 -0.992093 39.0753 0.397074 49.2939C1.78624 59.5125 6.75619 68.9074 14.4231 75.8079C22.09 82.7083 31.9568 86.667 42.2689 86.9799C52.581 87.2928 62.6699 83.9397 70.7414 77.5168C77.7663 71.8647 82.8647 64.1739 85.334 55.5043C87.8033 46.8347 87.5218 37.6129 84.5285 29.1098C81.5351 20.6068 75.9773 13.2409 68.6207 8.0274C61.2641 2.81385 52.471 0.00922392 43.4531 0ZM52.1714 9.84755C58.195 11.4061 63.6918 14.5473 68.0915 18.9451C72.4912 23.343 75.6337 28.8375 77.1929 34.8586C69.9044 35.0638 62.7903 37.1341 56.5306 40.8717C53.3873 37.3073 49.881 34.08 46.0686 31.242C49.9096 24.7538 52.0116 17.385 52.1714 9.84755ZM43.4531 8.71465C43.4388 14.9675 41.7208 21.0984 38.4837 26.4489C37.8298 26.1004 37.2196 25.7082 36.5657 25.4032C30.9527 22.4428 24.9509 20.2866 18.7368 18.9979C21.9758 15.7409 25.8268 13.1558 30.0684 11.391C34.3101 9.6263 38.8587 8.71675 43.4531 8.71465ZM12.9391 26.8411C19.7761 27.7905 26.3976 29.9132 32.5117 33.1157L33.0784 33.4642C29.8609 36.6773 26.0408 39.2242 21.8369 40.9589C17.633 42.6936 13.128 43.582 8.57996 43.5732C8.6042 37.7184 10.1034 31.964 12.9391 26.8411ZM34.7348 77.2989C28.7112 75.7403 23.2145 72.5992 18.8147 68.2013C14.415 63.8034 11.2726 58.309 9.71334 52.2879C15.5356 52.1586 21.2716 50.8528 26.5756 48.449C31.8797 46.0452 36.6421 42.5932 40.5761 38.3009C43.7274 40.6294 46.647 43.2559 49.2944 46.144C44.8802 50.0782 41.313 54.8691 38.81 60.2251C36.307 65.5811 34.9205 71.3903 34.7348 77.2989ZM43.4531 78.4318C43.4625 73.6448 44.4582 68.911 46.3782 64.5254C48.2981 60.1399 51.1011 56.1967 54.6126 52.9415C54.8741 53.2901 55.1356 53.5951 55.3536 53.9437C59.0065 59.5351 61.7162 65.6881 63.3744 72.1573C57.5401 76.252 50.582 78.4436 43.4531 78.4318ZM70.5234 65.3598C68.6304 59.5951 65.9926 54.102 62.677 49.0199L61.7616 47.9305C66.83 45.112 72.5265 43.6136 78.3263 43.5732C78.2831 51.5117 75.5303 59.1976 70.5234 65.3598Z" fill="#F2F2F2"/>
</svg>
