<svg width="51" height="81" viewBox="0 0 51 81" fill="none" xmlns="http://www.w3.org/2000/svg">
<path d="M25.5 0C20.4791 0.00635484 15.5714 1.50693 11.3909 4.31403C7.21044 7.12113 3.94267 11.1101 1.99635 15.7821C0.0500265 20.4541 -0.488444 25.6017 0.448287 30.581C1.38502 35.5603 3.75537 40.1503 7.26286 43.7768V77.3182C7.26474 77.9458 7.42553 78.5625 7.72996 79.1097C8.03439 79.657 8.47235 80.1166 9.00225 80.4449C9.53215 80.7732 10.1364 80.9593 10.7576 80.9856C11.3788 81.0119 11.9964 80.8774 12.5516 80.595L25.5 74.0782L38.4484 80.595C38.9565 80.8578 39.5187 80.9965 40.0897 81C40.7726 81.0022 41.4424 80.8108 42.0229 80.4477C42.5485 80.1161 42.9817 79.6547 43.2817 79.1071C43.5816 78.5596 43.7384 77.9439 43.7371 77.3182V43.7768C47.2446 40.1503 49.615 35.5603 50.5517 30.581C51.4885 25.6017 50.95 20.4541 49.0037 15.7821C47.0573 11.1101 43.7896 7.12113 39.6091 4.31403C35.4286 1.50693 30.5209 0.00635484 25.5 0ZM36.4423 71.3536L27.1413 66.6777C26.6322 66.4188 26.0701 66.2839 25.5 66.2839C24.9299 66.2839 24.3678 66.4188 23.8587 66.6777L14.5577 71.3536V49.0418C16.8662 50.1422 19.3252 50.8868 21.8526 51.2509V55.2273C21.8526 56.2037 22.2369 57.1402 22.9209 57.8307C23.6049 58.5212 24.5326 58.9091 25.5 58.9091C26.4674 58.9091 27.3951 58.5212 28.0791 57.8307C28.7631 57.1402 29.1474 56.2037 29.1474 55.2273V51.2509C31.6748 50.8868 34.1338 50.1422 36.4423 49.0418V71.3536ZM25.5 44.1818C21.893 44.1818 18.3671 43.1021 15.368 41.0793C12.3689 39.0565 10.0314 36.1814 8.65108 32.8176C7.27075 29.4538 6.90959 25.7523 7.61328 22.1813C8.31696 18.6103 10.0539 15.3301 12.6044 12.7555C15.1549 10.181 18.4045 8.42768 21.9421 7.71736C25.4798 7.00704 29.1466 7.3716 32.479 8.76494C35.8115 10.1583 38.6597 12.5178 40.6636 15.5452C42.6676 18.5725 43.7371 22.1317 43.7371 25.7727C43.7371 30.6551 41.8157 35.3375 38.3956 38.7899C34.9755 42.2423 30.3368 44.1818 25.5 44.1818Z" fill="#F2F2F2"/>
</svg>
