<svg width="36" height="35" viewBox="0 0 36 35" fill="none" xmlns="http://www.w3.org/2000/svg">
<path d="M17.0622 13.3567V9.11777L9.93247 13.8633L13.1165 15.9885L17.0622 13.3567ZM26.7398 18.6012V15.5619L24.4623 17.0815L26.7398 18.6012ZM17.9724 0C8.54995 0 0.909912 7.64004 0.909912 17.0625C0.909912 26.485 8.54995 34.125 17.9724 34.125C27.3949 34.125 35.0349 26.485 35.0349 17.0625C35.0349 7.64004 27.3949 0 17.9724 0ZM28.5603 20.2998C28.5603 20.3417 28.5565 20.3798 28.5527 20.4179C28.5527 20.4331 28.5489 20.4445 28.5451 20.456C28.5397 20.4976 28.5295 20.5385 28.5146 20.5778C28.507 20.6007 28.4994 20.6235 28.4917 20.6426C28.4841 20.6578 28.4765 20.673 28.4727 20.6883C28.4613 20.7073 28.4537 20.7302 28.4422 20.7492C28.4346 20.7645 28.427 20.7759 28.4156 20.7911C28.4042 20.8102 28.3889 20.8292 28.3775 20.8482C28.3661 20.8635 28.3584 20.8749 28.347 20.8863C28.3318 20.9016 28.3166 20.9206 28.3013 20.9358C28.2899 20.9473 28.2785 20.9587 28.2632 20.9701C28.248 20.9854 28.229 21.0006 28.2099 21.012C28.1947 21.0234 28.1833 21.0349 28.168 21.0425C28.1642 21.0463 28.1566 21.0501 28.1528 21.0539L18.4751 27.498C18.3228 27.6009 18.1476 27.6504 17.9724 27.6504C17.7934 27.6504 17.6182 27.5971 17.4659 27.498L7.78823 21.0577C7.78442 21.0539 7.77681 21.0501 7.773 21.0463L7.7311 21.0158C7.71206 21.0006 7.69683 20.9892 7.68159 20.9739C7.67017 20.9625 7.65874 20.9511 7.64351 20.9396C7.62827 20.9244 7.61304 20.9092 7.5978 20.8901C7.5865 20.8784 7.57631 20.8657 7.56733 20.8521C7.5521 20.833 7.54067 20.814 7.52925 20.7949C7.52163 20.7797 7.51021 20.7683 7.50259 20.753C7.49116 20.734 7.47974 20.7111 7.47212 20.6921C7.4645 20.6769 7.45688 20.6616 7.45308 20.6464C7.44546 20.6235 7.43784 20.6007 7.43022 20.5816C7.42642 20.5664 7.4188 20.5512 7.41499 20.5359C7.40737 20.5093 7.40356 20.4864 7.39976 20.4598C7.39595 20.4483 7.39595 20.4331 7.39214 20.4217C7.38833 20.3836 7.38452 20.3417 7.38452 20.3036V13.8595C7.38452 13.8214 7.38833 13.7795 7.39214 13.7414C7.39595 13.73 7.39595 13.7147 7.39976 13.7033C7.40513 13.6616 7.41536 13.6207 7.43022 13.5814C7.43784 13.5586 7.44546 13.5357 7.45308 13.5167C7.46069 13.5015 7.46831 13.4862 7.47212 13.471C7.47974 13.452 7.49116 13.4291 7.50259 13.4101C7.51021 13.3948 7.51782 13.3834 7.52925 13.3682C7.5521 13.3339 7.57495 13.3034 7.5978 13.2729C7.61304 13.2577 7.62827 13.2387 7.64351 13.2234C7.65493 13.212 7.66636 13.2006 7.68159 13.1892C7.69683 13.1739 7.71587 13.1587 7.7311 13.1473C7.74634 13.1358 7.75776 13.1244 7.773 13.1168C7.77681 13.113 7.78442 13.1092 7.78823 13.1054L17.4659 6.66504C17.7706 6.46318 18.1705 6.46318 18.4751 6.66504L28.1528 13.1054C28.1566 13.1092 28.1642 13.113 28.168 13.1168L28.2099 13.1473L28.2632 13.1892C28.2747 13.2006 28.2861 13.212 28.3013 13.2234C28.3166 13.2387 28.3318 13.2539 28.347 13.2729C28.3737 13.3034 28.3965 13.3339 28.4156 13.3682C28.4232 13.3834 28.4346 13.3948 28.4422 13.4101C28.4537 13.4291 28.4651 13.4481 28.4727 13.471C28.4803 13.4862 28.4879 13.5015 28.4917 13.5167C28.4994 13.5396 28.507 13.5624 28.5146 13.5814C28.5184 13.5967 28.526 13.6119 28.5298 13.6271C28.5375 13.6538 28.5413 13.6767 28.5451 13.7033C28.5489 13.7147 28.5489 13.73 28.5527 13.7414C28.5565 13.7795 28.5603 13.8214 28.5603 13.8595V20.2998ZM18.8827 20.8063V25.0453L26.0124 20.2998L22.8284 18.1746L18.8827 20.8063ZM9.20503 15.5619V18.6012L11.4826 17.0815L9.20503 15.5619ZM17.9724 14.9335L14.7542 17.0815L17.9724 19.2296L21.1907 17.0815L17.9724 14.9335ZM26.0124 13.8633L18.8827 9.11777V13.3567L22.8284 15.9885L26.0124 13.8633ZM13.1165 18.1746L9.93247 20.2998L17.0622 25.0453V20.8063L13.1165 18.1746Z" fill="white"/>
</svg>
