<svg width="33" height="31" viewBox="0 0 33 31" fill="none" xmlns="http://www.w3.org/2000/svg">
<path d="M16.7433 0C12.9836 0.000155903 9.34669 1.3381 6.48323 3.77442C3.61978 6.21075 1.71667 9.58648 1.11442 13.2976C0.512167 17.0087 1.25008 20.813 3.19613 24.0299C5.14217 27.2467 8.16936 29.6661 11.736 30.8552C12.5277 30.9938 12.8246 30.5188 12.8246 30.1031C12.8246 29.7271 12.8048 28.4802 12.8048 27.1542C8.82662 27.8864 7.79745 26.1844 7.48079 25.2938C7.12941 24.4276 6.57239 23.66 5.85787 23.0573C5.3037 22.7604 4.51204 22.0281 5.83806 22.0084C6.34439 22.0633 6.83002 22.2395 7.25379 22.522C7.67756 22.8045 8.02698 23.185 8.27245 23.6312C8.48901 24.0203 8.7802 24.3627 9.12934 24.639C9.47848 24.9153 9.87871 25.12 10.3071 25.2413C10.7355 25.3627 11.1836 25.3983 11.6258 25.3462C12.0679 25.294 12.4955 25.1551 12.8839 24.9375C12.9524 24.1326 13.3112 23.38 13.8933 22.8198C10.3704 22.424 6.68912 21.0583 6.68912 15.0021C6.66687 13.4285 7.24754 11.906 8.31204 10.7469C7.82798 9.37927 7.88462 7.87837 8.47037 6.55109C8.47037 6.55109 9.79636 6.13545 12.8245 8.174C15.4153 7.46146 18.1504 7.46146 20.7412 8.174C23.7693 6.11567 25.0954 6.55109 25.0954 6.55109C25.6812 7.87835 25.7378 9.37928 25.2537 10.7469C26.3214 11.9041 26.9026 13.4279 26.8766 15.0021C26.8766 21.0781 23.1755 22.424 19.6527 22.8198C20.0305 23.2028 20.3215 23.6626 20.506 24.1681C20.6904 24.6735 20.7638 25.2127 20.7214 25.749C20.7214 27.8667 20.7016 29.5688 20.7016 30.1032C20.7016 30.5188 20.9985 31.0136 21.7901 30.8553C25.3505 29.6565 28.369 27.2314 30.3068 24.0129C32.2445 20.7944 32.9754 16.9921 32.369 13.2845C31.7626 9.57702 29.8583 6.20567 26.9961 3.77231C24.1339 1.33895 20.5001 0.00195527 16.7433 0Z" fill="white"/>
</svg>
