<svg width="30" height="30" viewBox="0 0 30 30" fill="none" xmlns="http://www.w3.org/2000/svg">
<path d="M27.615 -3.43945e-05H2.205C1.91937 -0.00400133 1.63575 0.0483369 1.37035 0.153991C1.10495 0.259646 0.862955 0.416547 0.658196 0.615734C0.453438 0.814921 0.289922 1.05249 0.176988 1.31488C0.0640536 1.57727 0.00391259 1.85933 0 2.14497V27.855C0.00391259 28.1406 0.0640536 28.4227 0.176988 28.6851C0.289922 28.9474 0.453438 29.185 0.658196 29.3842C0.862955 29.5834 1.10495 29.7403 1.37035 29.8459C1.63575 29.9516 1.91937 30.0039 2.205 30H27.615C27.9006 30.0039 28.1842 29.9516 28.4496 29.8459C28.7151 29.7403 28.957 29.5834 29.1618 29.3842C29.3666 29.185 29.5301 28.9474 29.643 28.6851C29.7559 28.4227 29.8161 28.1406 29.82 27.855V2.14497C29.8161 1.85933 29.7559 1.57727 29.643 1.31488C29.5301 1.05249 29.3666 0.814921 29.1618 0.615734C28.957 0.416547 28.7151 0.259646 28.4496 0.153991C28.1842 0.0483369 27.9006 -0.00400133 27.615 -3.43945e-05ZM9.045 25.11H4.545V11.61H9.045V25.11ZM6.795 9.71996C6.17439 9.71996 5.5792 9.47343 5.14037 9.0346C4.70153 8.59576 4.455 8.00057 4.455 7.37997C4.455 6.75936 4.70153 6.16417 5.14037 5.72534C5.5792 5.2865 6.17439 5.03997 6.795 5.03997C7.12454 5.00259 7.45826 5.03525 7.77431 5.13579C8.09036 5.23633 8.38161 5.4025 8.62898 5.62341C8.87636 5.84432 9.07429 6.11498 9.20981 6.41769C9.34532 6.72039 9.41538 7.04831 9.41538 7.37997C9.41538 7.71162 9.34532 8.03954 9.20981 8.34224C9.07429 8.64495 8.87636 8.91562 8.62898 9.13652C8.38161 9.35743 8.09036 9.5236 7.77431 9.62414C7.45826 9.72468 7.12454 9.75734 6.795 9.71996ZM25.275 25.11H20.775V17.865C20.775 16.05 20.13 14.865 18.495 14.865C17.989 14.8687 17.4963 15.0274 17.0833 15.3197C16.6702 15.6121 16.3567 16.024 16.185 16.5C16.0676 16.8525 16.0168 17.2238 16.035 17.595V25.095H11.535C11.535 25.095 11.535 12.825 11.535 11.595H16.035V13.5C16.4438 12.7906 17.0384 12.2062 17.7547 11.8098C18.471 11.4133 19.2819 11.2197 20.1 11.25C23.1 11.25 25.275 13.185 25.275 17.34V25.11Z" fill="white"/>
</svg>
