<svg width="45" height="45" viewBox="0 0 45 45" fill="none" xmlns="http://www.w3.org/2000/svg">
<path fill-rule="evenodd" clip-rule="evenodd" d="M22.5 45C34.9264 45 45 34.9264 45 22.5C45 10.0736 34.9264 0 22.5 0C10.0736 0 0 10.0736 0 22.5C0 34.9264 10.0736 45 22.5 45ZM17.3571 5.14286C15.5819 5.14286 14.1429 6.58194 14.1429 8.35715V21.2143C14.1429 22.9895 15.5819 24.4286 17.3571 24.4286C19.1323 24.4286 20.5714 22.9895 20.5714 21.2143V8.35714C20.5714 6.58194 19.1323 5.14286 17.3571 5.14286ZM27.6991 19.3665C28.9544 18.1113 30.9895 18.1113 32.2448 19.3665C33.5001 20.6218 33.5001 22.6569 32.2448 23.9122L19.6757 36.4813C18.4204 37.7366 16.3852 37.7366 15.13 36.4813C13.8747 35.2261 13.8747 33.1909 15.13 31.9356L27.6991 19.3665ZM30.2143 30.8571C28.4391 30.8571 27 32.2962 27 34.0714C27 35.8466 28.4391 37.2857 30.2143 37.2857C31.9895 37.2857 33.4286 35.8466 33.4286 34.0714C33.4286 32.2962 31.9895 30.8571 30.2143 30.8571Z" fill="white"/>
</svg>
