<svg width="92" height="83" viewBox="0 0 92 83" fill="none" xmlns="http://www.w3.org/2000/svg">
<path d="M71.0909 33.2H20.9091C19.8 33.2 18.7363 33.6372 17.9521 34.4155C17.1679 35.1938 16.7273 36.2494 16.7273 37.35C16.7273 38.4506 17.1679 39.5062 17.9521 40.2845C18.7363 41.0628 19.8 41.5 20.9091 41.5H25.0909V78.85C25.0909 79.9507 25.5315 81.0062 26.3157 81.7845C27.1 82.5628 28.1636 83 29.2727 83C30.3818 83 31.4455 82.5628 32.2297 81.7845C33.014 81.0062 33.4545 79.9507 33.4545 78.85V74.7H41.8182V78.85C41.8182 79.9507 42.2588 81.0062 43.043 81.7845C43.8273 82.5628 44.8909 83 46 83C47.1091 83 48.1727 82.5628 48.957 81.7845C49.7412 81.0062 50.1818 79.9507 50.1818 78.85V74.7H58.5455V78.85C58.5455 79.9507 58.986 81.0062 59.7703 81.7845C60.5545 82.5628 61.6182 83 62.7273 83C63.8364 83 64.9 82.5628 65.6843 81.7845C66.4685 81.0062 66.9091 79.9507 66.9091 78.85V41.5H71.0909C72.2 41.5 73.2637 41.0628 74.0479 40.2845C74.8321 39.5062 75.2727 38.4506 75.2727 37.35C75.2727 36.2494 74.8321 35.1938 74.0479 34.4155C73.2637 33.6372 72.2 33.2 71.0909 33.2ZM41.8182 66.4H33.4545V58.1H41.8182V66.4ZM41.8182 49.8H33.4545V41.5H41.8182V49.8ZM58.5455 66.4H50.1818V58.1H58.5455V66.4ZM58.5455 49.8H50.1818V41.5H58.5455V49.8ZM79.4545 0H12.5455C9.21819 0 6.02721 1.31169 3.67448 3.64652C1.32175 5.98135 0 9.14806 0 12.45V45.65C0 48.9519 1.32175 52.1187 3.67448 54.4535C6.02721 56.7883 9.21819 58.1 12.5455 58.1C13.6545 58.1 14.7182 57.6628 15.5024 56.8845C16.2867 56.1062 16.7273 55.0507 16.7273 53.95C16.7273 52.8494 16.2867 51.7938 15.5024 51.0155C14.7182 50.2372 13.6545 49.8 12.5455 49.8C11.4364 49.8 10.3727 49.3628 9.58846 48.5845C8.80422 47.8062 8.36364 46.7506 8.36364 45.65V12.45C8.36364 11.3494 8.80422 10.2938 9.58846 9.51551C10.3727 8.73723 11.4364 8.3 12.5455 8.3H79.4545C80.5636 8.3 81.6273 8.73723 82.4115 9.51551C83.1958 10.2938 83.6364 11.3494 83.6364 12.45V45.65C83.6364 46.7506 83.1958 47.8062 82.4115 48.5845C81.6273 49.3628 80.5636 49.8 79.4545 49.8C78.3455 49.8 77.2818 50.2372 76.4975 51.0155C75.7133 51.7938 75.2727 52.8494 75.2727 53.95C75.2727 55.0507 75.7133 56.1062 76.4975 56.8845C77.2818 57.6628 78.3455 58.1 79.4545 58.1C82.7818 58.1 85.9728 56.7883 88.3255 54.4535C90.6782 52.1187 92 48.9519 92 45.65V12.45C92 9.14806 90.6782 5.98135 88.3255 3.64652C85.9728 1.31169 82.7818 0 79.4545 0ZM54.3636 24.9C55.4727 24.9 56.5364 24.4628 57.3206 23.6845C58.1049 22.9062 58.5455 21.8506 58.5455 20.75C58.5455 19.6494 58.1049 18.5938 57.3206 17.8155C56.5364 17.0372 55.4727 16.6 54.3636 16.6H37.6364C36.5273 16.6 35.4636 17.0372 34.6794 17.8155C33.8951 18.5938 33.4545 19.6494 33.4545 20.75C33.4545 21.8506 33.8951 22.9062 34.6794 23.6845C35.4636 24.4628 36.5273 24.9 37.6364 24.9H54.3636Z" fill="#F2F2F2"/>
</svg>
