<svg width="80" height="80" viewBox="0 0 80 80" fill="none" xmlns="http://www.w3.org/2000/svg">
<path d="M12 40C12 38.9391 11.5786 37.9217 10.8284 37.1716C10.0783 36.4214 9.06087 36 8 36H4C2.93913 36 1.92172 36.4214 1.17157 37.1716C0.421427 37.9217 0 38.9391 0 40C0 41.0609 0.421427 42.0783 1.17157 42.8284C1.92172 43.5786 2.93913 44 4 44H8C9.06087 44 10.0783 43.5786 10.8284 42.8284C11.5786 42.0783 12 41.0609 12 40ZM14.56 60L11.72 62.84C10.975 63.5894 10.5568 64.6033 10.5568 65.66C10.5568 66.7167 10.975 67.7306 11.72 68.48C12.4694 69.225 13.4833 69.6432 14.54 69.6432C15.5967 69.6432 16.6105 69.225 17.36 68.48L20.2 65.64C20.8553 64.8748 21.1977 63.8905 21.1588 62.8838C21.12 61.8771 20.7026 60.9221 19.9903 60.2097C19.2779 59.4974 18.3229 59.08 17.3162 59.0412C16.3095 59.0023 15.3252 59.3447 14.56 60ZM40 12C41.0609 12 42.0783 11.5786 42.8284 10.8284C43.5786 10.0783 44 9.06087 44 8V4C44 2.93913 43.5786 1.92172 42.8284 1.17157C42.0783 0.421427 41.0609 0 40 0C38.9391 0 37.9217 0.421427 37.1716 1.17157C36.4214 1.92172 36 2.93913 36 4V8C36 9.06087 36.4214 10.0783 37.1716 10.8284C37.9217 11.5786 38.9391 12 40 12ZM62.64 21.36C63.6894 21.3556 64.695 20.939 65.44 20.2L68.28 17.36C68.6987 17.0014 69.0388 16.5601 69.2789 16.0639C69.519 15.5676 69.6539 15.0271 69.6752 14.4762C69.6965 13.9253 69.6036 13.376 69.4025 12.8627C69.2015 12.3494 68.8964 11.8832 68.5066 11.4934C68.1168 11.1036 67.6506 10.7985 67.1373 10.5975C66.624 10.3964 66.0747 10.3035 65.5238 10.3248C64.9729 10.3461 64.4324 10.481 63.9361 10.7211C63.4399 10.9612 62.9986 11.3013 62.64 11.72L60 14.56C59.255 15.3094 58.8368 16.3233 58.8368 17.38C58.8368 18.4367 59.255 19.4506 60 20.2C60.7052 20.9014 61.6464 21.315 62.64 21.36ZM14.64 20.2C15.385 20.939 16.3906 21.3556 17.44 21.36C17.9664 21.363 18.4883 21.2621 18.9756 21.0631C19.463 20.864 19.9062 20.5707 20.28 20.2C21.025 19.4506 21.4432 18.4367 21.4432 17.38C21.4432 16.3233 21.025 15.3094 20.28 14.56L17.44 11.72C17.0697 11.3444 16.629 11.0455 16.1431 10.8402C15.6573 10.6349 15.1357 10.5273 14.6083 10.5236C14.0808 10.5199 13.5578 10.6201 13.0691 10.8185C12.5804 11.0169 12.1356 11.3097 11.76 11.68C11.3844 12.0503 11.0855 12.491 10.8802 12.9769C10.6749 13.4627 10.5673 13.9843 10.5636 14.5117C10.5561 15.5769 10.9721 16.6015 11.72 17.36L14.64 20.2ZM76 36H72C70.9391 36 69.9217 36.4214 69.1716 37.1716C68.4214 37.9217 68 38.9391 68 40C68 41.0609 68.4214 42.0783 69.1716 42.8284C69.9217 43.5786 70.9391 44 72 44H76C77.0609 44 78.0783 43.5786 78.8284 42.8284C79.5786 42.0783 80 41.0609 80 40C80 38.9391 79.5786 37.9217 78.8284 37.1716C78.0783 36.4214 77.0609 36 76 36ZM65.44 60C64.6801 59.5773 63.8031 59.4138 62.9418 59.5341C62.0806 59.6545 61.2821 60.0523 60.6672 60.6672C60.0523 61.2821 59.6545 62.0806 59.5341 62.9418C59.4138 63.8031 59.5773 64.6801 60 65.44L62.84 68.28C63.5894 69.025 64.6033 69.4432 65.66 69.4432C66.7167 69.4432 67.7306 69.025 68.48 68.28C69.225 67.5305 69.6432 66.5167 69.6432 65.46C69.6432 64.4033 69.225 63.3895 68.48 62.64L65.44 60ZM40 18C35.6488 18 31.3953 19.2903 27.7775 21.7077C24.1596 24.1251 21.3398 27.561 19.6747 31.581C18.0095 35.6009 17.5738 40.0244 18.4227 44.292C19.2716 48.5596 21.3669 52.4796 24.4436 55.5564C27.5204 58.6331 31.4404 60.7284 35.708 61.5773C39.9756 62.4262 44.3991 61.9905 48.419 60.3253C52.439 58.6602 55.8749 55.8404 58.2923 52.2225C60.7097 48.6047 62 44.3512 62 40C61.9894 34.1685 59.6682 28.5788 55.5447 24.4553C51.4212 20.3318 45.8315 18.0106 40 18ZM40 54C37.2311 54 34.5243 53.1789 32.222 51.6406C29.9197 50.1022 28.1253 47.9157 27.0657 45.3576C26.0061 42.7994 25.7288 39.9845 26.269 37.2687C26.8092 34.553 28.1426 32.0584 30.1005 30.1005C32.0584 28.1426 34.553 26.8092 37.2687 26.269C39.9845 25.7288 42.7994 26.0061 45.3576 27.0657C47.9157 28.1253 50.1022 29.9197 51.6406 32.222C53.1789 34.5243 54 37.2311 54 40C54 43.713 52.525 47.274 49.8995 49.8995C47.274 52.525 43.713 54 40 54ZM40 68C38.9391 68 37.9217 68.4214 37.1716 69.1716C36.4214 69.9217 36 70.9391 36 72V76C36 77.0609 36.4214 78.0783 37.1716 78.8284C37.9217 79.5786 38.9391 80 40 80C41.0609 80 42.0783 79.5786 42.8284 78.8284C43.5786 78.0783 44 77.0609 44 76V72C44 70.9391 43.5786 69.9217 42.8284 69.1716C42.0783 68.4214 41.0609 68 40 68Z" fill="#F2F2F2"/>
</svg>
