<svg width="798" height="866" viewBox="0 0 798 866" fill="none" xmlns="http://www.w3.org/2000/svg">
<path d="M597.766 298.131C590.331 320.586 580.551 342.567 565.822 361.283C550.289 381.04 530.445 397.201 509.962 411.563C490.237 425.381 470.086 439.814 447.354 448.261C426.492 456.022 404.565 460.234 382.827 464.777C335.326 474.715 287.067 489.408 247.333 518.18C225.761 533.797 207.788 552.773 195.285 576.41C182.995 599.646 174.897 624.987 166.538 649.808C149.749 699.709 127.775 748.546 93.1079 788.746C74.0933 810.798 52.6159 830.319 28.6049 846.787C18.399 853.791 10.2769 859.091 0 866H798V0C759.284 11.8779 729.164 35.0659 699.47 61.7321C665.395 92.326 643.752 131.722 630.136 175.046C617.444 215.554 611.121 257.789 597.766 298.131Z" fill="url(#paint0_linear_241_1272)"/>
<defs>
<linearGradient id="paint0_linear_241_1272" x1="-4.6355" y1="433" x2="795.599" y2="433" gradientUnits="userSpaceOnUse">
<stop stop-color="#15D5FF"/>
<stop offset="1" stop-color="#6D38DD"/>
</linearGradient>
</defs>
</svg>
