<svg width="685" height="629" viewBox="0 0 685 629" fill="none" xmlns="http://www.w3.org/2000/svg">
<path d="M685 0C677.624 6.44687 669.643 12.3352 660.498 17.3856C638.626 29.4415 611.332 29.4415 589.46 42.6145C526.123 80.7372 526.449 149.372 502.575 211.024C465.043 307.937 399.705 290.109 312.286 298.883C244.691 305.656 166.928 339.403 166.369 419.232C166.02 471.319 224.401 505.811 179.33 544.05C154.014 565.532 109.013 552.196 79.9737 561.855C39.8356 575.191 17.6608 599.815 0 629L684.953 627.604L685 0ZM534.756 164.802C537.804 157.611 539.665 150 542.713 142.785C545.506 136.199 548.577 129.729 551.23 123.072C556.511 109.783 562.073 97.1452 570.845 85.741C582.386 70.7294 599.674 50.2716 620.616 52.4826C621.733 52.599 622.734 53.9256 622.757 54.9962C622.78 63.1886 615.055 68.8675 609.517 73.8015C600.14 82.1336 590.926 90.9311 582.223 99.9614C572.264 110.318 564.004 121.397 558.815 134.872C556.442 141.016 554.58 147.44 551.811 153.421C549.019 159.449 544.854 163.848 540.154 168.503C538.944 169.69 537.385 169.457 536.361 168.596C535.081 168.014 534.034 166.501 534.756 164.802ZM380.369 324.438C384.837 318.107 395.82 315.896 402.591 319.434C404.801 320.574 406.709 322.529 407.919 324.834C411.386 328.976 410.572 335.214 406.128 338.449C401.451 341.87 393.865 343.173 388.327 341.451C381.114 339.194 375.25 331.676 380.369 324.438ZM196.525 430.893C189.452 416.23 192.64 398.821 202.459 386.277C208.951 377.968 217.467 370.427 225.192 363.236C232.079 356.835 239.409 350.877 247.32 345.757C262.631 335.842 279.85 328.953 297.883 326.044C316.73 322.995 335.927 324.997 354.821 326.3C356.705 326.44 358.218 327.161 359.358 328.232C366.036 331.839 364.5 340.474 359.404 344.989C353.006 350.644 344.071 350.807 336.322 353.414C327.457 356.393 319.359 361.699 311.983 367.401C295.183 380.388 281.571 397.285 267.657 413.181C257.302 425.004 246.204 440.435 230.963 446.277C216.909 451.63 202.808 443.926 196.525 430.893ZM148.895 505.346C137.54 516.703 119.111 516.703 107.756 505.346C96.4012 493.988 96.4012 475.555 107.756 464.198C119.111 452.84 137.54 452.84 148.895 464.198C160.25 475.555 160.25 493.988 148.895 505.346ZM446.684 237.091C421.694 262.087 381.184 262.087 356.193 237.091C331.203 212.095 331.203 171.575 356.193 146.579C381.184 121.583 421.694 121.583 446.684 146.579C471.675 171.575 471.675 212.095 446.684 237.091ZM498.527 126.005C489.429 135.105 474.7 135.105 465.625 126.005C456.527 116.905 456.527 102.172 465.625 93.0955C474.723 83.9954 489.452 83.9954 498.527 93.0955C507.601 102.172 507.601 116.928 498.527 126.005Z" fill="url(#paint0_linear_241_1273)"/>
<defs>
<linearGradient id="paint0_linear_241_1273" x1="259.876" y1="231.816" x2="676.862" y2="648.704" gradientUnits="userSpaceOnUse">
<stop stop-color="#1FFFF2"/>
<stop offset="0.865921" stop-color="#6D38DD"/>
</linearGradient>
</defs>
</svg>
