<svg width="808" height="636" viewBox="0 0 808 636" fill="none" xmlns="http://www.w3.org/2000/svg">
<path fill-rule="evenodd" clip-rule="evenodd" d="M534.909 36.955C534.909 57.3647 518.363 73.9101 497.954 73.9101C477.544 73.9101 460.998 57.3647 460.998 36.955C460.998 16.5453 477.544 0 497.954 0C518.363 0 534.909 16.5453 534.909 36.955ZM645.774 135.293C680.02 135.293 707.783 107.531 707.783 73.2837C707.783 39.0369 680.02 11.2744 645.774 11.2744C611.527 11.2744 583.764 39.0369 583.764 73.2837C583.764 107.531 611.527 135.293 645.774 135.293ZM708.409 613.829C728.819 613.829 745.364 597.284 745.364 576.874C745.364 556.465 728.819 539.919 708.409 539.919C688 539.919 671.454 556.465 671.454 576.874C671.454 597.284 688 613.829 708.409 613.829ZM341.194 630.879C176.877 649.492 74.7941 615.369 9.9518 356.347C-30.0407 196.591 40.9918 -36.0627 398.316 80.2644C755.641 196.591 861.967 326.878 783.721 433.899C705.474 540.92 505.512 612.267 341.194 630.879Z" fill="url(#paint0_linear_260_1299)"/>
<defs>
<linearGradient id="paint0_linear_260_1299" x1="368.924" y1="18.1644" x2="651.825" y2="643.973" gradientUnits="userSpaceOnUse">
<stop stop-color="#FCEE21"/>
<stop offset="1" stop-color="#15D5FF"/>
</linearGradient>
</defs>
</svg>
